<svg xmlns="http://www.w3.org/2000/svg" width="32" height="32"><path d="M.5 3.5A.5.5 0 0 0 0 4v19a.5.5 0 0 0 .5.5h12.453c-.009.923-.044 1.609-.264 2.113-.251.58-.775 1.122-1.918 1.887H7.916a.5.5 0 1 0 0 1h16.168a.5.5 0 1 0 0-1h-2.855c-1.143-.765-1.667-1.307-1.918-1.887-.22-.504-.255-1.19-.264-2.113H31.5a.5.5 0 0 0 .5-.5V4a.5.5 0 0 0-.5-.5H.5zm.5 1h30v14H1v-14zm0 15h30v3H1v-3zm12.904 4h4.192c.005.954-.012 1.797.299 2.512.23.53.665 1.006 1.218 1.488h-7.226c.553-.482.988-.959 1.218-1.488.311-.715.294-1.558.3-2.512z" color="#000" font-family="sans-serif" font-weight="400" overflow="visible" style="line-height:normal;text-indent:0;text-align:start;text-decoration-line:none;text-decoration-style:solid;text-decoration-color:#000;text-transform:none;block-progression:tb;white-space:normal;isolation:auto;mix-blend-mode:normal;solid-color:#000;solid-opacity:1"/></svg>