<svg xmlns="http://www.w3.org/2000/svg" xmlns:svgjs="http://svgjs.com/svgjs" xmlns:xlink="http://www.w3.org/1999/xlink" width="288" height="288"><svg xmlns="http://www.w3.org/2000/svg" width="288" height="288" viewBox="0 0 24 24"><path fill="none" d="M0 0h24v24H0z"/><g fill="#757575" class="color757575 svgShape"><path fill="#000" d="M12 19H4V5h12v3h2V4a2 2 0 0 0-2-2H4a2 2 0 0 0-2 2v16a2 2 0 0 0 2 2h8v-3z" class="color000 svgShape"/><path fill="#000" d="M22 12a2 2 0 0 0-2-2h-4a2 2 0 0 0-2 2v8a2 2 0 0 0 2 2h4a2 2 0 0 0 2-2v-8zm-2 7h-4v-7h4v7z" class="color000 svgShape"/></g></svg></svg>